<svg width="869" height="94" viewBox="0 0 869 94" fill="none" xmlns="http://www.w3.org/2000/svg">
<g clip-path="url(#clip0_436_2171)">
<g clip-path="url(#clip1_436_2171)">
<path d="M666.566 12.8428L666.456 -73.8401" stroke="#BCBCBC" stroke-width="1.2" stroke-miterlimit="10"/>
<path d="M676.199 22.5078L676.076 -73.8537" stroke="#BCBCBC" stroke-width="1.2" stroke-miterlimit="10"/>
<path d="M685.824 28.5254L685.694 -73.864" stroke="#BCBCBC" stroke-width="1.2" stroke-miterlimit="10"/>
<path d="M695.445 32.7598L695.309 -73.8746" stroke="#BCBCBC" stroke-width="1.2" stroke-miterlimit="10"/>
<path d="M705.066 35.8896L704.926 -73.886" stroke="#BCBCBC" stroke-width="1.2" stroke-miterlimit="10"/>
<path d="M714.684 38.167L714.541 -73.901" stroke="#BCBCBC" stroke-width="1.2" stroke-miterlimit="10"/>
<path d="M724.305 39.7695L724.16 -73.9115" stroke="#BCBCBC" stroke-width="1.2" stroke-miterlimit="10"/>
<path d="M733.922 40.6943L733.776 -73.9206" stroke="#BCBCBC" stroke-width="1.2" stroke-miterlimit="10"/>
<path d="M743.539 41.2764L743.392 -73.9329" stroke="#BCBCBC" stroke-width="1.2" stroke-miterlimit="10"/>
<path d="M753.156 40.6699L753.01 -73.9451" stroke="#BCBCBC" stroke-width="1.2" stroke-miterlimit="10"/>
<path d="M762.77 39.7256L762.625 -73.9555" stroke="#BCBCBC" stroke-width="1.2" stroke-miterlimit="10"/>
<path d="M772.387 38.0986L772.244 -73.9693" stroke="#BCBCBC" stroke-width="1.2" stroke-miterlimit="10"/>
<path d="M781.996 35.5439L781.856 -73.977" stroke="#BCBCBC" stroke-width="1.2" stroke-miterlimit="10"/>
<path d="M791.613 31.9648L791.478 -73.9903" stroke="#BCBCBC" stroke-width="1.2" stroke-miterlimit="10"/>
<path d="M801.223 26.6904L801.094 -74.0009" stroke="#BCBCBC" stroke-width="1.2" stroke-miterlimit="10"/>
<path d="M810.828 18.6113L810.71 -74.0145" stroke="#BCBCBC" stroke-width="1.2" stroke-miterlimit="10"/>
<path d="M820.43 8.07422L820.325 -74.0241" stroke="#BCBCBC" stroke-width="1.2" stroke-miterlimit="10"/>
</g>
<g clip-path="url(#clip2_436_2171)">
<path d="M164.723 2.86914L164.609 -86.6025" stroke="#BCBCBC" stroke-width="1.2" stroke-miterlimit="10"/>
<path d="M174.352 14.4229L174.223 -86.615" stroke="#BCBCBC" stroke-width="1.2" stroke-miterlimit="10"/>
<path d="M183.988 27.9736L183.842 -86.6245" stroke="#BCBCBC" stroke-width="1.2" stroke-miterlimit="10"/>
<path d="M193.629 49.0996L193.456 -86.6367" stroke="#BCBCBC" stroke-width="1.2" stroke-miterlimit="10"/>
<path d="M203.266 64.2441L203.073 -86.6479" stroke="#BCBCBC" stroke-width="1.2" stroke-miterlimit="10"/>
<path d="M212.898 73.6729L212.694 -86.6583" stroke="#BCBCBC" stroke-width="1.2" stroke-miterlimit="10"/>
<path d="M222.52 80.3096L222.307 -86.6688" stroke="#BCBCBC" stroke-width="1.2" stroke-miterlimit="10"/>
<path d="M232.145 85.2139L231.925 -86.6834" stroke="#BCBCBC" stroke-width="1.2" stroke-miterlimit="10"/>
<path d="M241.766 88.7939L241.542 -86.6928" stroke="#BCBCBC" stroke-width="1.2" stroke-miterlimit="10"/>
<path d="M251.383 91.3086L251.156 -86.7041" stroke="#BCBCBC" stroke-width="1.2" stroke-miterlimit="10"/>
<path d="M261.004 92.7588L260.775 -86.7163" stroke="#BCBCBC" stroke-width="1.2" stroke-miterlimit="10"/>
<path d="M270.621 93.6787L270.391 -86.727" stroke="#BCBCBC" stroke-width="1.2" stroke-miterlimit="10"/>
<path d="M280.234 92.7344L280.006 -86.7408" stroke="#BCBCBC" stroke-width="1.2" stroke-miterlimit="10"/>
<path d="M289.852 91.2646L289.625 -86.7481" stroke="#BCBCBC" stroke-width="1.2" stroke-miterlimit="10"/>
<path d="M299.465 88.7256L299.241 -86.7612" stroke="#BCBCBC" stroke-width="1.2" stroke-miterlimit="10"/>
<path d="M309.074 84.7246L308.856 -86.7738" stroke="#BCBCBC" stroke-width="1.2" stroke-miterlimit="10"/>
<path d="M318.688 79.1279L318.476 -86.7868" stroke="#BCBCBC" stroke-width="1.2" stroke-miterlimit="10"/>
<path d="M328.297 70.877L328.096 -86.7953" stroke="#BCBCBC" stroke-width="1.2" stroke-miterlimit="10"/>
<path d="M337.891 58.2344L337.706 -86.8081" stroke="#BCBCBC" stroke-width="1.2" stroke-miterlimit="10"/>
<path d="M347.492 41.7402L347.328 -86.8171" stroke="#BCBCBC" stroke-width="1.2" stroke-miterlimit="10"/>
<path d="M357.094 28.0332L356.947 -86.8309" stroke="#BCBCBC" stroke-width="1.2" stroke-miterlimit="10"/>
<path d="M366.688 16.3232L366.556 -86.8417" stroke="#BCBCBC" stroke-width="1.2" stroke-miterlimit="10"/>
<path d="M376.297 6.73828L376.178 -86.8547" stroke="#BCBCBC" stroke-width="1.2" stroke-miterlimit="10"/>
<path d="M482.238 2.09375L482.125 -86.9791" stroke="#BCBCBC" stroke-width="1.2" stroke-miterlimit="10"/>
<path d="M491.859 5.80664L491.741 -86.9886" stroke="#BCBCBC" stroke-width="1.2" stroke-miterlimit="10"/>
<path d="M501.477 7.6543L501.356 -87.0022" stroke="#BCBCBC" stroke-width="1.2" stroke-miterlimit="10"/>
<path d="M511.094 8.44141L510.972 -87.0128" stroke="#BCBCBC" stroke-width="1.2" stroke-miterlimit="10"/>
<path d="M520.711 7.62988L520.59 -87.0266" stroke="#BCBCBC" stroke-width="1.2" stroke-miterlimit="10"/>
<path d="M530.324 5.75781L530.206 -87.0375" stroke="#BCBCBC" stroke-width="1.2" stroke-miterlimit="10"/>
<path d="M539.938 2.02539L539.824 -87.0474" stroke="#BCBCBC" stroke-width="1.2" stroke-miterlimit="10"/>
</g>
</g>
<defs>
<clipPath id="clip0_436_2171">
<rect width="869" height="94" fill="white"/>
</clipPath>
<clipPath id="clip1_436_2171">
<rect width="781.364" height="85.1352" fill="white" transform="matrix(1 -0.000879455 -0.00172575 -0.999999 473.148 46)"/>
</clipPath>
<clipPath id="clip2_436_2171">
<rect width="781.364" height="133.313" fill="white" transform="matrix(1 -0.000879455 -0.00172575 -0.999999 0.230469 94)"/>
</clipPath>
</defs>
</svg>
