<svg width="134" height="829" viewBox="0 0 134 829" fill="none" xmlns="http://www.w3.org/2000/svg">
<g clip-path="url(#clip0_436_2339)">
<g clip-path="url(#clip1_436_2339)">
<path d="M1.05078 522.09L-33.6733 522.046" stroke="#BCBCBC" stroke-width="1.2" stroke-miterlimit="10"/>
<path d="M2.57031 531.709L-33.682 531.663" stroke="#BCBCBC" stroke-width="1.2" stroke-miterlimit="10"/>
<path d="M3.49609 541.326L-33.6901 541.279" stroke="#BCBCBC" stroke-width="1.2" stroke-miterlimit="10"/>
<path d="M4.16016 550.945L-33.7052 550.897" stroke="#BCBCBC" stroke-width="1.2" stroke-miterlimit="10"/>
<path d="M4.14844 560.561L-33.717 560.512" stroke="#BCBCBC" stroke-width="1.2" stroke-miterlimit="10"/>
<path d="M2.86328 570.176L-33.7286 570.129" stroke="#BCBCBC" stroke-width="1.2" stroke-miterlimit="10"/>
<path d="M3.44531 579.793L-33.7409 579.746" stroke="#BCBCBC" stroke-width="1.2" stroke-miterlimit="10"/>
<path d="M4.87891 589.41L-33.7506 589.361" stroke="#BCBCBC" stroke-width="1.2" stroke-miterlimit="10"/>
<path d="M6.65234 599.031L-33.76 598.98" stroke="#BCBCBC" stroke-width="1.2" stroke-miterlimit="10"/>
<path d="M9.35547 608.812L-33.7737 608.757" stroke="#BCBCBC" stroke-width="1.2" stroke-miterlimit="10"/>
<path d="M12.9961 618.434L-33.7838 618.374" stroke="#BCBCBC" stroke-width="1.2" stroke-miterlimit="10"/>
<path d="M17.5664 628.057L-33.7981 627.991" stroke="#BCBCBC" stroke-width="1.2" stroke-miterlimit="10"/>
<path d="M23.332 637.678L-33.8057 637.605" stroke="#BCBCBC" stroke-width="1.2" stroke-miterlimit="10"/>
<path d="M30.7031 647.305L-33.8209 647.222" stroke="#BCBCBC" stroke-width="1.2" stroke-miterlimit="10"/>
<path d="M39.3516 656.934L-33.8322 656.84" stroke="#BCBCBC" stroke-width="1.2" stroke-miterlimit="10"/>
<path d="M52.8438 666.566L-33.8391 666.456" stroke="#BCBCBC" stroke-width="1.2" stroke-miterlimit="10"/>
<path d="M62.5078 676.197L-33.8537 676.074" stroke="#BCBCBC" stroke-width="1.2" stroke-miterlimit="10"/>
<path d="M68.5234 685.822L-33.8659 685.692" stroke="#BCBCBC" stroke-width="1.2" stroke-miterlimit="10"/>
<path d="M72.7578 695.443L-33.8766 695.307" stroke="#BCBCBC" stroke-width="1.2" stroke-miterlimit="10"/>
<path d="M75.8906 705.064L-33.8851 704.924" stroke="#BCBCBC" stroke-width="1.2" stroke-miterlimit="10"/>
<path d="M78.168 714.684L-33.9 714.541" stroke="#BCBCBC" stroke-width="1.2" stroke-miterlimit="10"/>
<path d="M79.7695 724.303L-33.9115 724.158" stroke="#BCBCBC" stroke-width="1.2" stroke-miterlimit="10"/>
<path d="M80.6953 733.92L-33.9197 733.774" stroke="#BCBCBC" stroke-width="1.2" stroke-miterlimit="10"/>
<path d="M81.2773 743.539L-33.9319 743.392" stroke="#BCBCBC" stroke-width="1.2" stroke-miterlimit="10"/>
<path d="M80.668 753.154L-33.947 753.008" stroke="#BCBCBC" stroke-width="1.2" stroke-miterlimit="10"/>
<path d="M79.7266 762.768L-33.9545 762.623" stroke="#BCBCBC" stroke-width="1.2" stroke-miterlimit="10"/>
<path d="M78.0977 772.385L-33.9703 772.242" stroke="#BCBCBC" stroke-width="1.2" stroke-miterlimit="10"/>
<path d="M75.543 781.996L-33.978 781.856" stroke="#BCBCBC" stroke-width="1.2" stroke-miterlimit="10"/>
<path d="M71.9648 791.611L-33.9903 791.476" stroke="#BCBCBC" stroke-width="1.2" stroke-miterlimit="10"/>
<path d="M66.6914 801.221L-34 801.092" stroke="#BCBCBC" stroke-width="1.2" stroke-miterlimit="10"/>
<path d="M58.6094 810.826L-34.0165 810.708" stroke="#BCBCBC" stroke-width="1.2" stroke-miterlimit="10"/>
<path d="M48.0742 820.43L-34.0241 820.325" stroke="#BCBCBC" stroke-width="1.2" stroke-miterlimit="10"/>
</g>
<g clip-path="url(#clip2_436_2339)">
<path d="M4.19922 39.4941L-46.4526 39.4295" stroke="#BCBCBC" stroke-width="1.2" stroke-miterlimit="10"/>
<path d="M7.91016 49.1152L-46.4641 49.0459" stroke="#BCBCBC" stroke-width="1.2" stroke-miterlimit="10"/>
<path d="M10.2891 58.7363L-46.4783 58.6639" stroke="#BCBCBC" stroke-width="1.2" stroke-miterlimit="10"/>
<path d="M11.7422 68.3535L-46.4875 68.2792" stroke="#BCBCBC" stroke-width="1.2" stroke-miterlimit="10"/>
<path d="M12.7969 77.9727L-46.4964 77.897" stroke="#BCBCBC" stroke-width="1.2" stroke-miterlimit="10"/>
<path d="M12.7852 87.5879L-46.5081 87.5123" stroke="#BCBCBC" stroke-width="1.2" stroke-miterlimit="10"/>
<path d="M10.7734 97.2012L-46.5256 97.1281" stroke="#BCBCBC" stroke-width="1.2" stroke-miterlimit="10"/>
<path d="M11.6953 106.82L-46.5344 106.746" stroke="#BCBCBC" stroke-width="1.2" stroke-miterlimit="10"/>
<path d="M13.9453 116.441L-46.5444 116.364" stroke="#BCBCBC" stroke-width="1.2" stroke-miterlimit="10"/>
<path d="M16.7266 126.061L-46.555 125.98" stroke="#BCBCBC" stroke-width="1.2" stroke-miterlimit="10"/>
<path d="M20.9688 135.844L-46.5671 135.758" stroke="#BCBCBC" stroke-width="1.2" stroke-miterlimit="10"/>
<path d="M26.6719 145.469L-46.5806 145.375" stroke="#BCBCBC" stroke-width="1.2" stroke-miterlimit="10"/>
<path d="M33.8438 155.096L-46.5877 154.993" stroke="#BCBCBC" stroke-width="1.2" stroke-miterlimit="10"/>
<path d="M42.8672 164.721L-46.6045 164.607" stroke="#BCBCBC" stroke-width="1.2" stroke-miterlimit="10"/>
<path d="M54.4219 174.354L-46.616 174.225" stroke="#BCBCBC" stroke-width="1.2" stroke-miterlimit="10"/>
<path d="M67.9727 183.988L-46.6255 183.842" stroke="#BCBCBC" stroke-width="1.2" stroke-miterlimit="10"/>
<path d="M89.0977 193.631L-46.6387 193.458" stroke="#BCBCBC" stroke-width="1.2" stroke-miterlimit="10"/>
<path d="M104.242 203.266L-46.6499 203.073" stroke="#BCBCBC" stroke-width="1.2" stroke-miterlimit="10"/>
<path d="M113.672 212.898L-46.6592 212.694" stroke="#BCBCBC" stroke-width="1.2" stroke-miterlimit="10"/>
<path d="M120.309 222.521L-46.6698 222.309" stroke="#BCBCBC" stroke-width="1.2" stroke-miterlimit="10"/>
<path d="M125.215 232.143L-46.6824 231.923" stroke="#BCBCBC" stroke-width="1.2" stroke-miterlimit="10"/>
<path d="M128.793 241.766L-46.6938 241.542" stroke="#BCBCBC" stroke-width="1.2" stroke-miterlimit="10"/>
<path d="M131.309 251.385L-46.7041 251.158" stroke="#BCBCBC" stroke-width="1.2" stroke-miterlimit="10"/>
<path d="M132.758 261.004L-46.7173 260.775" stroke="#BCBCBC" stroke-width="1.2" stroke-miterlimit="10"/>
<path d="M133.68 270.623L-46.726 270.393" stroke="#BCBCBC" stroke-width="1.2" stroke-miterlimit="10"/>
<path d="M132.734 280.236L-46.7408 280.007" stroke="#BCBCBC" stroke-width="1.2" stroke-miterlimit="10"/>
<path d="M131.266 289.852L-46.7471 289.625" stroke="#BCBCBC" stroke-width="1.2" stroke-miterlimit="10"/>
<path d="M128.727 299.467L-46.7602 299.243" stroke="#BCBCBC" stroke-width="1.2" stroke-miterlimit="10"/>
<path d="M124.723 309.076L-46.7758 308.857" stroke="#BCBCBC" stroke-width="1.2" stroke-miterlimit="10"/>
<path d="M119.129 318.686L-46.7859 318.474" stroke="#BCBCBC" stroke-width="1.2" stroke-miterlimit="10"/>
<path d="M110.875 328.295L-46.7972 328.094" stroke="#BCBCBC" stroke-width="1.2" stroke-miterlimit="10"/>
<path d="M98.2344 337.893L-46.8081 337.708" stroke="#BCBCBC" stroke-width="1.2" stroke-miterlimit="10"/>
<path d="M81.7383 347.49L-46.8191 347.326" stroke="#BCBCBC" stroke-width="1.2" stroke-miterlimit="10"/>
<path d="M68.0312 357.092L-46.8328 356.945" stroke="#BCBCBC" stroke-width="1.2" stroke-miterlimit="10"/>
<path d="M56.3242 366.689L-46.8407 366.558" stroke="#BCBCBC" stroke-width="1.2" stroke-miterlimit="10"/>
<path d="M46.7383 376.297L-46.8547 376.178" stroke="#BCBCBC" stroke-width="1.2" stroke-miterlimit="10"/>
<path d="M39.0156 385.904L-46.8665 385.795" stroke="#BCBCBC" stroke-width="1.2" stroke-miterlimit="10"/>
<path d="M33.2891 395.672L-46.8765 395.57" stroke="#BCBCBC" stroke-width="1.2" stroke-miterlimit="10"/>
<path d="M29.1523 405.283L-46.8919 405.186" stroke="#BCBCBC" stroke-width="1.2" stroke-miterlimit="10"/>
<path d="M26.4883 414.896L-46.8971 414.803" stroke="#BCBCBC" stroke-width="1.2" stroke-miterlimit="10"/>
<path d="M25.2773 424.512L-46.9115 424.42" stroke="#BCBCBC" stroke-width="1.2" stroke-miterlimit="10"/>
<path d="M25.2656 434.131L-46.9233 434.039" stroke="#BCBCBC" stroke-width="1.2" stroke-miterlimit="10"/>
<path d="M26.8477 443.748L-46.9366 443.654" stroke="#BCBCBC" stroke-width="1.2" stroke-miterlimit="10"/>
<path d="M29.3633 453.369L-46.9469 453.272" stroke="#BCBCBC" stroke-width="1.2" stroke-miterlimit="10"/>
<path d="M32.9414 462.99L-46.9583 462.888" stroke="#BCBCBC" stroke-width="1.2" stroke-miterlimit="10"/>
<path d="M37.8516 472.613L-46.967 472.505" stroke="#BCBCBC" stroke-width="1.2" stroke-miterlimit="10"/>
<path d="M42.0938 482.236L-46.9791 482.123" stroke="#BCBCBC" stroke-width="1.2" stroke-miterlimit="10"/>
<path d="M45.8047 491.857L-46.9906 491.739" stroke="#BCBCBC" stroke-width="1.2" stroke-miterlimit="10"/>
<path d="M47.6523 501.477L-47.0042 501.356" stroke="#BCBCBC" stroke-width="1.2" stroke-miterlimit="10"/>
<path d="M48.4414 511.094L-47.0128 510.972" stroke="#BCBCBC" stroke-width="1.2" stroke-miterlimit="10"/>
<path d="M47.6289 520.709L-47.0276 520.588" stroke="#BCBCBC" stroke-width="1.2" stroke-miterlimit="10"/>
<path d="M45.7578 530.324L-47.0375 530.206" stroke="#BCBCBC" stroke-width="1.2" stroke-miterlimit="10"/>
<path d="M42.0234 539.936L-47.0494 539.822" stroke="#BCBCBC" stroke-width="1.2" stroke-miterlimit="10"/>
<path d="M36.8281 549.545L-47.0599 549.438" stroke="#BCBCBC" stroke-width="1.2" stroke-miterlimit="10"/>
<path d="M29.7695 559.154L-47.0724 559.056" stroke="#BCBCBC" stroke-width="1.2" stroke-miterlimit="10"/>
<path d="M21.1172 568.76L-47.0833 568.673" stroke="#BCBCBC" stroke-width="1.2" stroke-miterlimit="10"/>
<path d="M11.4023 578.363L-47.0933 578.289" stroke="#BCBCBC" stroke-width="1.2" stroke-miterlimit="10"/>
<path d="M2.61719 587.971L-47.1041 587.907" stroke="#BCBCBC" stroke-width="1.2" stroke-miterlimit="10"/>
<path d="M1.71094 674.68L-47.2126 674.617" stroke="#BCBCBC" stroke-width="1.2" stroke-miterlimit="10"/>
<path d="M5.69141 684.303L-47.2205 684.235" stroke="#BCBCBC" stroke-width="1.2" stroke-miterlimit="10"/>
<path d="M7.9375 693.92L-47.2345 693.85" stroke="#BCBCBC" stroke-width="1.2" stroke-miterlimit="10"/>
<path d="M8.72656 703.539L-47.2431 703.468" stroke="#BCBCBC" stroke-width="1.2" stroke-miterlimit="10"/>
<path d="M7.91406 713.156L-47.2579 713.086" stroke="#BCBCBC" stroke-width="1.2" stroke-miterlimit="10"/>
<path d="M6.30859 722.77L-47.2681 722.701" stroke="#BCBCBC" stroke-width="1.2" stroke-miterlimit="10"/>
<path d="M3.375 732.383L-47.2769 732.318" stroke="#BCBCBC" stroke-width="1.2" stroke-miterlimit="10"/>
</g>
</g>
<defs>
<clipPath id="clip0_436_2339">
<rect width="829" height="134" fill="white" transform="translate(134) rotate(90)"/>
</clipPath>
<clipPath id="clip1_436_2339">
<rect width="781.364" height="85.1352" fill="white" transform="matrix(-0.000879542 1 -0.999999 -0.00172583 86 473.146)"/>
</clipPath>
<clipPath id="clip2_436_2339">
<rect width="781.364" height="133.313" fill="white" transform="matrix(-0.000879542 1 -0.999999 -0.00172583 134 0.230469)"/>
</clipPath>
</defs>
</svg>
