<svg width="1254" height="134" viewBox="0 0 1254 134" fill="none" xmlns="http://www.w3.org/2000/svg">
<g clip-path="url(#clip0_453_1521)">
<g clip-path="url(#clip1_453_1521)">
<path d="M521.094 132.947L521.049 167.671" stroke="#BCBCBC" stroke-width="1.2" stroke-miterlimit="10"/>
<path d="M530.711 131.429L530.665 167.681" stroke="#BCBCBC" stroke-width="1.2" stroke-miterlimit="10"/>
<path d="M540.328 130.505L540.281 167.691" stroke="#BCBCBC" stroke-width="1.2" stroke-miterlimit="10"/>
<path d="M549.945 129.838L549.897 167.703" stroke="#BCBCBC" stroke-width="1.2" stroke-miterlimit="10"/>
<path d="M559.562 129.851L559.514 167.716" stroke="#BCBCBC" stroke-width="1.2" stroke-miterlimit="10"/>
<path d="M569.176 131.136L569.129 167.728" stroke="#BCBCBC" stroke-width="1.2" stroke-miterlimit="10"/>
<path d="M578.797 130.553L578.749 167.739" stroke="#BCBCBC" stroke-width="1.2" stroke-miterlimit="10"/>
<path d="M588.41 129.119L588.361 167.749" stroke="#BCBCBC" stroke-width="1.2" stroke-miterlimit="10"/>
<path d="M598.031 127.348L597.98 167.76" stroke="#BCBCBC" stroke-width="1.2" stroke-miterlimit="10"/>
<path d="M607.812 124.644L607.757 167.773" stroke="#BCBCBC" stroke-width="1.2" stroke-miterlimit="10"/>
<path d="M617.434 121.004L617.374 167.784" stroke="#BCBCBC" stroke-width="1.2" stroke-miterlimit="10"/>
<path d="M627.059 116.433L626.993 167.797" stroke="#BCBCBC" stroke-width="1.2" stroke-miterlimit="10"/>
<path d="M636.68 110.668L636.607 167.806" stroke="#BCBCBC" stroke-width="1.2" stroke-miterlimit="10"/>
<path d="M646.305 103.296L646.222 167.82" stroke="#BCBCBC" stroke-width="1.2" stroke-miterlimit="10"/>
<path d="M655.938 94.6475L655.844 167.831" stroke="#BCBCBC" stroke-width="1.2" stroke-miterlimit="10"/>
<path d="M665.566 81.1572L665.456 167.84" stroke="#BCBCBC" stroke-width="1.2" stroke-miterlimit="10"/>
<path d="M675.199 71.4922L675.076 167.854" stroke="#BCBCBC" stroke-width="1.2" stroke-miterlimit="10"/>
<path d="M684.824 65.4746L684.694 167.864" stroke="#BCBCBC" stroke-width="1.2" stroke-miterlimit="10"/>
<path d="M694.445 61.2402L694.309 167.875" stroke="#BCBCBC" stroke-width="1.2" stroke-miterlimit="10"/>
<path d="M704.066 58.1104L703.926 167.886" stroke="#BCBCBC" stroke-width="1.2" stroke-miterlimit="10"/>
<path d="M713.684 55.833L713.541 167.901" stroke="#BCBCBC" stroke-width="1.2" stroke-miterlimit="10"/>
<path d="M723.305 54.2305L723.16 167.912" stroke="#BCBCBC" stroke-width="1.2" stroke-miterlimit="10"/>
<path d="M732.922 53.3057L732.776 167.921" stroke="#BCBCBC" stroke-width="1.2" stroke-miterlimit="10"/>
<path d="M742.539 52.7236L742.392 167.933" stroke="#BCBCBC" stroke-width="1.2" stroke-miterlimit="10"/>
<path d="M752.156 53.3301L752.01 167.945" stroke="#BCBCBC" stroke-width="1.2" stroke-miterlimit="10"/>
<path d="M761.77 54.2744L761.625 167.955" stroke="#BCBCBC" stroke-width="1.2" stroke-miterlimit="10"/>
<path d="M771.387 55.9014L771.244 167.969" stroke="#BCBCBC" stroke-width="1.2" stroke-miterlimit="10"/>
<path d="M780.996 58.4561L780.856 167.977" stroke="#BCBCBC" stroke-width="1.2" stroke-miterlimit="10"/>
<path d="M790.613 62.0352L790.478 167.99" stroke="#BCBCBC" stroke-width="1.2" stroke-miterlimit="10"/>
<path d="M800.223 67.3096L800.094 168.001" stroke="#BCBCBC" stroke-width="1.2" stroke-miterlimit="10"/>
<path d="M809.828 75.3887L809.71 168.015" stroke="#BCBCBC" stroke-width="1.2" stroke-miterlimit="10"/>
<path d="M819.43 85.9258L819.325 168.024" stroke="#BCBCBC" stroke-width="1.2" stroke-miterlimit="10"/>
<path d="M829.035 94.6836L828.942 168.037" stroke="#BCBCBC" stroke-width="1.2" stroke-miterlimit="10"/>
<path d="M838.648 102.163L838.564 168.045" stroke="#BCBCBC" stroke-width="1.2" stroke-miterlimit="10"/>
<path d="M848.254 108.29L848.178 168.06" stroke="#BCBCBC" stroke-width="1.2" stroke-miterlimit="10"/>
<path d="M857.867 113.227L857.797 168.072" stroke="#BCBCBC" stroke-width="1.2" stroke-miterlimit="10"/>
<path d="M867.637 116.887L867.571 168.081" stroke="#BCBCBC" stroke-width="1.2" stroke-miterlimit="10"/>
<path d="M877.25 119.53L877.188 168.093" stroke="#BCBCBC" stroke-width="1.2" stroke-miterlimit="10"/>
<path d="M886.867 121.241L886.807 168.106" stroke="#BCBCBC" stroke-width="1.2" stroke-miterlimit="10"/>
<path d="M896.48 122.017L896.422 168.117" stroke="#BCBCBC" stroke-width="1.2" stroke-miterlimit="10"/>
<path d="M906.098 122.028L906.039 168.129" stroke="#BCBCBC" stroke-width="1.2" stroke-miterlimit="10"/>
<path d="M915.715 121.02L915.655 168.139" stroke="#BCBCBC" stroke-width="1.2" stroke-miterlimit="10"/>
<path d="M925.332 119.417L925.27 168.15" stroke="#BCBCBC" stroke-width="1.2" stroke-miterlimit="10"/>
<path d="M934.953 117.136L934.888 168.161" stroke="#BCBCBC" stroke-width="1.2" stroke-miterlimit="10"/>
<path d="M944.578 114.006L944.509 168.172" stroke="#BCBCBC" stroke-width="1.2" stroke-miterlimit="10"/>
<path d="M954.195 111.303L954.123 168.186" stroke="#BCBCBC" stroke-width="1.2" stroke-miterlimit="10"/>
<path d="M963.812 108.937L963.737 168.197" stroke="#BCBCBC" stroke-width="1.2" stroke-miterlimit="10"/>
<path d="M973.434 107.76L973.356 168.209" stroke="#BCBCBC" stroke-width="1.2" stroke-miterlimit="10"/>
<path d="M983.051 107.262L982.973 168.22" stroke="#BCBCBC" stroke-width="1.2" stroke-miterlimit="10"/>
<path d="M992.668 107.783L992.591 168.232" stroke="#BCBCBC" stroke-width="1.2" stroke-miterlimit="10"/>
<path d="M1002.28 108.98L1002.21 168.241" stroke="#BCBCBC" stroke-width="1.2" stroke-miterlimit="10"/>
<path d="M1011.89 111.371L1011.82 168.254" stroke="#BCBCBC" stroke-width="1.2" stroke-miterlimit="10"/>
<path d="M1021.51 114.693L1021.44 168.265" stroke="#BCBCBC" stroke-width="1.2" stroke-miterlimit="10"/>
<path d="M1031.12 119.204L1031.05 168.276" stroke="#BCBCBC" stroke-width="1.2" stroke-miterlimit="10"/>
<path d="M1040.73 124.736L1040.67 168.29" stroke="#BCBCBC" stroke-width="1.2" stroke-miterlimit="10"/>
<path d="M1050.34 130.942L1050.29 168.298" stroke="#BCBCBC" stroke-width="1.2" stroke-miterlimit="10"/>
<path d="M1165.9 133.204L1165.85 168.438" stroke="#BCBCBC" stroke-width="1.2" stroke-miterlimit="10"/>
<path d="M1175.51 132.706L1175.47 168.449" stroke="#BCBCBC" stroke-width="1.2" stroke-miterlimit="10"/>
<path d="M1185.13 133.229L1185.09 168.462" stroke="#BCBCBC" stroke-width="1.2" stroke-miterlimit="10"/>
</g>
<g clip-path="url(#clip2_453_1521)">
<path d="M38.4922 129.8L38.4276 180.452" stroke="#BCBCBC" stroke-width="1.2" stroke-miterlimit="10"/>
<path d="M48.1172 126.089L48.0478 180.463" stroke="#BCBCBC" stroke-width="1.2" stroke-miterlimit="10"/>
<path d="M57.7383 123.71L57.6659 180.477" stroke="#BCBCBC" stroke-width="1.2" stroke-miterlimit="10"/>
<path d="M67.3516 122.256L67.2773 180.486" stroke="#BCBCBC" stroke-width="1.2" stroke-miterlimit="10"/>
<path d="M76.9727 121.203L76.897 180.496" stroke="#BCBCBC" stroke-width="1.2" stroke-miterlimit="10"/>
<path d="M86.5859 121.216L86.5103 180.509" stroke="#BCBCBC" stroke-width="1.2" stroke-miterlimit="10"/>
<path d="M96.1992 123.225L96.1261 180.524" stroke="#BCBCBC" stroke-width="1.2" stroke-miterlimit="10"/>
<path d="M105.82 122.304L105.746 180.533" stroke="#BCBCBC" stroke-width="1.2" stroke-miterlimit="10"/>
<path d="M115.441 120.055L115.364 180.544" stroke="#BCBCBC" stroke-width="1.2" stroke-miterlimit="10"/>
<path d="M125.062 117.274L124.982 180.556" stroke="#BCBCBC" stroke-width="1.2" stroke-miterlimit="10"/>
<path d="M134.844 113.032L134.758 180.568" stroke="#BCBCBC" stroke-width="1.2" stroke-miterlimit="10"/>
<path d="M144.469 107.328L144.375 180.581" stroke="#BCBCBC" stroke-width="1.2" stroke-miterlimit="10"/>
<path d="M154.094 100.157L153.991 180.589" stroke="#BCBCBC" stroke-width="1.2" stroke-miterlimit="10"/>
<path d="M163.723 91.1309L163.609 180.603" stroke="#BCBCBC" stroke-width="1.2" stroke-miterlimit="10"/>
<path d="M173.352 79.5771L173.223 180.615" stroke="#BCBCBC" stroke-width="1.2" stroke-miterlimit="10"/>
<path d="M182.988 66.0264L182.842 180.625" stroke="#BCBCBC" stroke-width="1.2" stroke-miterlimit="10"/>
<path d="M192.629 44.9004L192.456 180.637" stroke="#BCBCBC" stroke-width="1.2" stroke-miterlimit="10"/>
<path d="M202.266 29.7559L202.073 180.648" stroke="#BCBCBC" stroke-width="1.2" stroke-miterlimit="10"/>
<path d="M211.898 20.3271L211.694 180.658" stroke="#BCBCBC" stroke-width="1.2" stroke-miterlimit="10"/>
<path d="M221.52 13.6904L221.307 180.669" stroke="#BCBCBC" stroke-width="1.2" stroke-miterlimit="10"/>
<path d="M231.145 8.78613L230.925 180.683" stroke="#BCBCBC" stroke-width="1.2" stroke-miterlimit="10"/>
<path d="M240.766 5.20605L240.542 180.693" stroke="#BCBCBC" stroke-width="1.2" stroke-miterlimit="10"/>
<path d="M250.383 2.69141L250.156 180.704" stroke="#BCBCBC" stroke-width="1.2" stroke-miterlimit="10"/>
<path d="M260.004 1.24121L259.775 180.716" stroke="#BCBCBC" stroke-width="1.2" stroke-miterlimit="10"/>
<path d="M269.621 0.321289L269.391 180.727" stroke="#BCBCBC" stroke-width="1.2" stroke-miterlimit="10"/>
<path d="M279.234 1.26562L279.006 180.741" stroke="#BCBCBC" stroke-width="1.2" stroke-miterlimit="10"/>
<path d="M288.852 2.73535L288.625 180.748" stroke="#BCBCBC" stroke-width="1.2" stroke-miterlimit="10"/>
<path d="M298.465 5.27441L298.241 180.761" stroke="#BCBCBC" stroke-width="1.2" stroke-miterlimit="10"/>
<path d="M308.074 9.27539L307.856 180.774" stroke="#BCBCBC" stroke-width="1.2" stroke-miterlimit="10"/>
<path d="M317.688 14.8721L317.476 180.787" stroke="#BCBCBC" stroke-width="1.2" stroke-miterlimit="10"/>
<path d="M327.297 23.123L327.096 180.795" stroke="#BCBCBC" stroke-width="1.2" stroke-miterlimit="10"/>
<path d="M336.891 35.7656L336.706 180.808" stroke="#BCBCBC" stroke-width="1.2" stroke-miterlimit="10"/>
<path d="M346.492 52.2598L346.328 180.817" stroke="#BCBCBC" stroke-width="1.2" stroke-miterlimit="10"/>
<path d="M356.094 65.9668L355.947 180.831" stroke="#BCBCBC" stroke-width="1.2" stroke-miterlimit="10"/>
<path d="M365.688 77.6768L365.556 180.842" stroke="#BCBCBC" stroke-width="1.2" stroke-miterlimit="10"/>
<path d="M375.297 87.2617L375.178 180.855" stroke="#BCBCBC" stroke-width="1.2" stroke-miterlimit="10"/>
<path d="M384.902 94.9834L384.793 180.866" stroke="#BCBCBC" stroke-width="1.2" stroke-miterlimit="10"/>
<path d="M394.672 100.712L394.57 180.877" stroke="#BCBCBC" stroke-width="1.2" stroke-miterlimit="10"/>
<path d="M404.281 104.846L404.184 180.89" stroke="#BCBCBC" stroke-width="1.2" stroke-miterlimit="10"/>
<path d="M413.898 107.513L413.805 180.898" stroke="#BCBCBC" stroke-width="1.2" stroke-miterlimit="10"/>
<path d="M423.512 108.722L423.42 180.911" stroke="#BCBCBC" stroke-width="1.2" stroke-miterlimit="10"/>
<path d="M433.129 108.734L433.037 180.923" stroke="#BCBCBC" stroke-width="1.2" stroke-miterlimit="10"/>
<path d="M442.746 107.151L442.652 180.936" stroke="#BCBCBC" stroke-width="1.2" stroke-miterlimit="10"/>
<path d="M452.371 104.637L452.274 180.947" stroke="#BCBCBC" stroke-width="1.2" stroke-miterlimit="10"/>
<path d="M461.992 101.057L461.89 180.956" stroke="#BCBCBC" stroke-width="1.2" stroke-miterlimit="10"/>
<path d="M471.613 96.1484L471.505 180.967" stroke="#BCBCBC" stroke-width="1.2" stroke-miterlimit="10"/>
<path d="M481.238 91.9062L481.125 180.979" stroke="#BCBCBC" stroke-width="1.2" stroke-miterlimit="10"/>
<path d="M490.859 88.1934L490.741 180.989" stroke="#BCBCBC" stroke-width="1.2" stroke-miterlimit="10"/>
<path d="M500.477 86.3457L500.356 181.002" stroke="#BCBCBC" stroke-width="1.2" stroke-miterlimit="10"/>
<path d="M510.094 85.5586L509.972 181.013" stroke="#BCBCBC" stroke-width="1.2" stroke-miterlimit="10"/>
<path d="M519.711 86.3701L519.59 181.027" stroke="#BCBCBC" stroke-width="1.2" stroke-miterlimit="10"/>
<path d="M529.324 88.2422L529.206 181.037" stroke="#BCBCBC" stroke-width="1.2" stroke-miterlimit="10"/>
<path d="M538.938 91.9746L538.824 181.047" stroke="#BCBCBC" stroke-width="1.2" stroke-miterlimit="10"/>
<path d="M548.547 97.1729L548.44 181.061" stroke="#BCBCBC" stroke-width="1.2" stroke-miterlimit="10"/>
<path d="M558.156 104.23L558.058 181.072" stroke="#BCBCBC" stroke-width="1.2" stroke-miterlimit="10"/>
<path d="M567.758 112.884L567.671 181.084" stroke="#BCBCBC" stroke-width="1.2" stroke-miterlimit="10"/>
<path d="M577.363 122.598L577.289 181.093" stroke="#BCBCBC" stroke-width="1.2" stroke-miterlimit="10"/>
<path d="M586.969 131.383L586.905 181.104" stroke="#BCBCBC" stroke-width="1.2" stroke-miterlimit="10"/>
<path d="M673.68 132.287L673.617 181.211" stroke="#BCBCBC" stroke-width="1.2" stroke-miterlimit="10"/>
<path d="M683.305 128.31L683.237 181.221" stroke="#BCBCBC" stroke-width="1.2" stroke-miterlimit="10"/>
<path d="M692.922 126.061L692.852 181.233" stroke="#BCBCBC" stroke-width="1.2" stroke-miterlimit="10"/>
<path d="M702.539 125.272L702.468 181.242" stroke="#BCBCBC" stroke-width="1.2" stroke-miterlimit="10"/>
<path d="M712.156 126.084L712.086 181.256" stroke="#BCBCBC" stroke-width="1.2" stroke-miterlimit="10"/>
<path d="M721.77 127.691L721.701 181.268" stroke="#BCBCBC" stroke-width="1.2" stroke-miterlimit="10"/>
<path d="M731.383 130.624L731.318 181.276" stroke="#BCBCBC" stroke-width="1.2" stroke-miterlimit="10"/>
</g>
</g>
<defs>
<clipPath id="clip0_453_1521">
<rect width="1254" height="134" fill="white"/>
</clipPath>
<clipPath id="clip1_453_1521">
<rect width="781.364" height="85.1352" fill="white" transform="matrix(1 0.000879455 -0.00172575 0.999999 472.148 48)"/>
</clipPath>
<clipPath id="clip2_453_1521">
<rect width="781.364" height="133.313" fill="white" transform="matrix(1 0.000879455 -0.00172575 0.999999 -0.769531 0)"/>
</clipPath>
</defs>
</svg>
