<?xml version="1.0" standalone="no"?>
<!DOCTYPE svg PUBLIC "-//W3C//DTD SVG 20010904//EN" "http://www.w3.org/TR/2001/REC-SVG-20010904/DTD/svg10.dtd">
<svg version="1.0" xmlns="http://www.w3.org/2000/svg" width="361.000000pt" height="375.000000pt"
        viewBox="0 0 361.000000 375.000000" preserveAspectRatio="xMidYMid meet">

        <g transform="translate(0.000000,375.000000) scale(0.100000,-0.100000)" fill="black" stroke="none">
                <path d="M980 3580 c-32 -30 -33 -31 -26 -98 14 -134 36 -414 55 -717 14 -208
-18 -219 -113 -40 -23 44 -97 188 -165 320 -150 292 -154 299 -186 313 -21 10
-33 9 -63 -3 -45 -20 -52 -29 -52 -83 0 -34 26 -102 119 -311 66 -147 138
-311 160 -365 44 -105 53 -172 25 -183 -39 -15 -85 29 -279 261 -107 128 -202
237 -211 240 -50 19 -114 -18 -114 -67 0 -28 120 -235 219 -377 199 -286 235
-354 263 -508 84 -456 171 -657 317 -731 37 -19 51 -20 195 -14 l156 6 61 81
c33 45 66 88 72 96 65 80 203 285 240 357 26 50 47 93 47 95 0 1 -82 3 -182 3
l-183 0 -78 34 c-179 77 -247 215 -171 348 36 63 92 91 211 107 97 14 253 57
339 95 l44 20 0 128 c0 132 21 516 41 728 12 138 6 165 -43 195 -41 25 -79 25
-108 2 -20 -16 -32 -66 -96 -393 -40 -206 -78 -398 -84 -427 -16 -76 -58 -91
-90 -33 -4 9 -20 90 -34 181 -34 217 -81 503 -101 615 -13 76 -21 95 -47 123
-43 44 -93 44 -138 2z" />
                <path d="M2370 2584 c-8 -3 -44 -14 -80 -26 -36 -11 -83 -28 -105 -38 -22 -10
-74 -32 -115 -50 -82 -35 -114 -51 -265 -127 -55 -28 -127 -60 -160 -71 -165
-56 -256 -80 -317 -85 -71 -5 -118 -26 -118 -53 0 -32 73 -91 135 -110 52 -15
86 -16 253 -10 217 7 249 1 272 -55 27 -63 -39 -234 -157 -414 -57 -87 -317
-435 -476 -638 -93 -119 -99 -149 -41 -203 65 -62 55 -68 396 276 238 241 312
310 331 310 25 0 37 -16 37 -49 0 -10 -34 -92 -76 -182 -90 -195 -98 -212
-202 -444 -44 -99 -84 -192 -87 -206 -8 -31 25 -103 50 -113 9 -3 33 -6 54 -6
46 0 64 18 121 125 151 283 382 676 407 693 21 13 23 12 33 -14 11 -27 7 -72
-55 -614 -8 -69 -15 -151 -15 -182 0 -49 3 -59 26 -77 49 -39 106 -27 133 28
21 42 21 39 72 341 82 486 97 545 141 538 46 -7 58 -50 89 -345 16 -153 34
-294 40 -315 26 -100 137 -86 154 19 5 27 9 208 10 403 2 236 7 373 15 410 7
30 36 111 66 178 162 368 200 585 128 728 -27 54 -35 62 -107 101 -95 51 -159
99 -253 190 -54 52 -81 71 -117 81 -46 12 -186 16 -217 6z" />
                <path d="M3152 2298 c-16 -16 -16 -22 12 -92 33 -83 40 -155 25 -251 -19 -128
-18 -140 11 -140 34 0 47 31 61 146 10 80 9 107 -4 173 -27 130 -70 199 -105
164z" />
                <path d="M3332 2257 c-8 -10 -6 -29 9 -78 27 -82 22 -225 -10 -309 -26 -68
-26 -77 0 -90 29 -16 44 0 71 78 31 92 32 281 2 357 -20 52 -50 69 -72 42z" />
                <path d="M560 1395 c-44 -53 128 -294 262 -365 39 -20 49 -22 62 -11 26 22 19
49 -16 67 -98 50 -165 123 -229 248 -37 73 -56 88 -79 61z" />
                <path d="M420 1335 c-16 -19 16 -117 68 -204 37 -63 144 -173 188 -193 31 -14
54 -4 54 24 -1 16 -18 35 -56 63 -31 22 -68 55 -84 75 -27 34 -86 150 -111
218 -12 34 -38 42 -59 17z" />
        </g>
</svg>