<svg width="16" height="18" viewBox="0 0 16 18" fill="none" xmlns="http://www.w3.org/2000/svg">
    <g clip-path="url(#clip0_855_1288)">
        <path
            d="M3.27881 11.2964C2.80253 10.0608 2.65827 8.91699 2.57998 8.48958C2.50096 8.06217 2.26898 7.53091 1.4701 6.43589C0.670501 5.34087 0.19567 4.51007 0.0325601 4.19428C-0.0841542 3.9675 0.13985 3.65595 0.421849 3.65595C0.532039 3.65595 0.650928 3.70328 0.762568 3.82197C1.15766 4.24444 2.56113 5.9456 2.76918 6.14765C2.86487 6.2402 3.05481 6.34899 3.19762 6.34899C3.3658 6.34899 3.46657 6.1971 3.26504 5.68774C2.89387 4.74603 1.88984 2.66478 1.68976 2.16743C1.40703 1.46097 1.82459 1.40233 1.82459 1.40233C1.82459 1.40233 1.94276 1.31473 2.09282 1.31473C2.20736 1.31473 2.3393 1.3656 2.45094 1.54645C2.70829 1.96256 4.19295 4.88096 4.37853 5.14023C4.46988 5.2674 4.57209 5.35712 4.65038 5.35712C4.72868 5.35712 4.78885 5.25963 4.78087 5.00318C4.7642 4.50159 4.55759 1.51749 4.43653 0.536206C4.39376 0.186507 4.77797 0.0113034 4.95631 0C4.96138 0 4.96573 0 4.9708 0C5.14986 0 5.42389 0.199929 5.49058 0.409749C5.55945 0.625221 6.16694 4.33345 6.22929 4.7983C6.26336 5.05192 6.40472 5.23631 6.54463 5.23631C6.66135 5.23631 6.77734 5.10844 6.82808 4.78629C6.93972 4.07842 7.54939 1.21441 7.60594 0.850583C7.65161 0.555987 7.83212 0.457082 8.03437 0.457082C8.08149 0.457082 8.12934 0.462734 8.17718 0.471918C8.43164 0.521371 8.62084 0.703638 8.60779 0.991876C8.59547 1.26104 8.2881 4.86824 8.34102 6.09184C7.82922 6.31226 6.01398 6.69304 5.76026 6.77499C5.50653 6.85694 5.2615 7.00954 5.10274 7.29919C4.95051 7.57612 4.92948 7.89403 5.04475 8.19357C5.26368 8.76581 5.8835 9.03356 6.06763 9.10208C6.08213 9.10774 6.09808 9.11409 6.1133 9.11975C6.36775 9.22006 6.64902 9.31049 7.28479 9.31049C7.59651 9.31049 7.98508 9.2893 8.47078 9.24691C8.38379 9.45532 8.2562 9.70046 8.18008 9.8474L8.11267 9.97881C8.00972 10.1794 7.71468 10.6033 7.23115 11.2455C7.12458 11.3868 7.00932 11.5387 6.88463 11.7012C6.70267 11.9385 6.20972 12.7467 5.39852 12.7948C4.98748 12.8188 4.52932 12.6676 4.36839 12.5899C4.06971 12.4458 3.58836 12.0996 3.27881 11.2957V11.2964Z"
            fill="#4DC0A7" />
        <path
            d="M15.9548 8.95857C15.6489 10.2436 15.119 11.2744 14.9421 11.6728C14.7645 12.0713 14.6564 12.6385 14.6985 13.9822C14.742 15.3259 14.6644 16.274 14.6217 16.6251C14.5992 16.8046 14.4078 16.9268 14.215 16.9268C14.0221 16.9268 13.846 16.8166 13.8025 16.541C13.714 15.9759 13.5118 13.8021 13.4531 13.5223C13.419 13.3584 13.2718 13.09 13.1109 13.09C12.9956 13.09 12.8731 13.227 12.7789 13.6368C12.5527 14.6209 12.2062 16.8964 12.0895 17.4178C11.9771 17.9194 11.7661 18.0006 11.6415 18.0006C11.582 18.0006 11.5421 17.9822 11.5421 17.9822C11.5421 17.9822 11.5371 17.9822 11.5284 17.9822C11.4522 17.9822 11.0825 17.9596 11.1028 17.5244C11.1253 17.0391 11.5479 13.8077 11.54 13.492C11.5356 13.3026 11.4863 13.15 11.3884 13.15C11.3232 13.15 11.2369 13.2178 11.1275 13.3888C10.8556 13.8155 9.33254 16.4118 8.87511 17.2941C8.78231 17.4729 8.60688 17.5301 8.44377 17.5301C8.32053 17.5301 8.20527 17.4976 8.13857 17.4602C7.98344 17.3733 7.86092 17.0476 7.92544 16.8314C7.99069 16.6145 9.59279 13.1995 9.80447 12.7784C9.94583 12.498 9.89436 12.2175 9.69863 12.2175C9.60004 12.2175 9.4652 12.2881 9.29919 12.4648C8.80334 12.9939 6.66841 15.0497 6.41468 15.3217C6.29869 15.446 6.1827 15.4962 6.07324 15.4962C5.94348 15.4962 5.82314 15.4263 5.7231 15.3295C5.53969 15.15 5.48532 14.8971 5.66003 14.664C5.83474 14.4308 8.47422 11.1832 8.8954 10.363C9.29412 9.58591 9.99223 8.38139 8.68372 8.38139C8.60978 8.38139 8.53004 8.38492 8.44305 8.3934C7.92617 8.44003 7.55573 8.45839 7.28315 8.45839C6.69668 8.45839 6.56039 8.37362 6.37771 8.3058C6.10949 8.20619 5.74339 7.94338 5.87461 7.70389C5.9297 7.60357 6.07831 7.57885 6.24722 7.54564C6.55242 7.48489 7.75798 7.21784 8.60616 6.89781C8.80624 6.82222 9.62106 6.41106 9.92771 6.26977C10.7251 5.90382 11.6936 5.51809 12.0213 5.45945C12.2112 5.42554 12.4331 5.40576 12.6535 5.40576C12.8137 5.40576 13.9431 5.50184 14.9529 6.46051C15.9628 7.41918 16.0969 8.35313 15.9526 8.96069L15.9548 8.95857Z"
            fill="#4DC0A7" />
    </g>
    <defs>
        <clipPath id="clip0_855_1288">
            <rect width="16" height="18" fill="#4DC0A7" />
        </clipPath>
    </defs>
</svg>