<?xml version="1.0" standalone="no"?>
<!DOCTYPE svg PUBLIC "-//W3C//DTD SVG 20010904//EN"
 "http://www.w3.org/TR/2001/REC-SVG-20010904/DTD/svg10.dtd">
<svg version="1.0" xmlns="http://www.w3.org/2000/svg"
 width="133.000000pt" height="133.000000pt" viewBox="0 0 133.000000 133.000000"
 preserveAspectRatio="xMidYMid meet">

<g transform="translate(0.000000,133.000000) scale(0.100000,-0.100000)"
fill="#000000" stroke="none">
<path d="M380 1110 c0 -5 7 -10 15 -10 8 0 15 5 15 10 0 6 -7 10 -15 10 -8 0
-15 -4 -15 -10z"/>
<path d="M424 1105 c-4 -8 -15 -15 -25 -15 -13 0 -19 -7 -19 -24 0 -22 -2 -23
-25 -13 -23 11 -23 12 -5 15 31 5 24 24 -7 20 -34 -4 -43 -33 -14 -43 12 -3
21 -11 21 -16 0 -6 -9 -7 -20 -4 -11 4 -20 2 -20 -4 0 -6 21 -10 50 -10 49 2
50 2 51 33 l1 31 7 -30 c6 -29 9 -30 63 -33 35 -1 60 2 64 10 5 8 0 9 -14 6
-12 -4 -25 -2 -28 3 -3 5 7 9 21 9 22 0 26 4 23 23 -6 43 -78 30 -78 -14 0
-11 -5 -19 -11 -19 -5 0 -9 12 -8 28 3 43 0 62 -11 62 -6 0 -13 -7 -16 -15z
m103 -41 c-3 -3 -12 -4 -19 -1 -8 3 -5 6 6 6 11 1 17 -2 13 -5z"/>
<path d="M820 1110 c0 -5 5 -10 10 -10 6 0 10 5 10 10 0 6 -4 10 -10 10 -5 0
-10 -4 -10 -10z"/>
<path d="M595 1081 c-4 -7 5 -11 22 -12 28 -1 28 -1 3 -8 -15 -4 -26 -15 -28
-29 -3 -20 1 -22 52 -22 52 0 55 1 58 27 4 39 28 42 28 4 0 -40 16 -40 24 -1
3 17 10 30 16 30 5 0 10 -13 10 -30 0 -21 5 -30 16 -30 12 0 14 9 12 38 l-3
37 -62 3 -63 2 -1 -37 0 -38 -12 35 c-9 27 -18 36 -39 38 -14 2 -29 -2 -33 -7z
m45 -39 c0 -13 -12 -22 -22 -16 -10 6 -1 24 13 24 5 0 9 -4 9 -8z"/>
<path d="M820 1050 c0 -22 5 -40 10 -40 6 0 10 18 10 40 0 22 -4 40 -10 40 -5
0 -10 -18 -10 -40z"/>
<path d="M860 1075 c-20 -24 -4 -65 26 -65 15 0 23 -4 19 -10 -4 -6 -15 -8
-26 -5 -23 8 -26 -10 -3 -19 24 -9 64 20 64 46 0 20 1 21 13 4 27 -38 95 2 71
42 -16 24 -55 28 -71 6 -12 -16 -13 -16 -13 -1 0 22 -62 24 -80 2z m50 -25 c0
-11 -7 -20 -15 -20 -8 0 -15 9 -15 20 0 11 7 20 15 20 8 0 15 -9 15 -20z m90
0 c0 -21 -15 -27 -25 -10 -7 12 2 30 16 30 5 0 9 -9 9 -20z"/>
<path d="M420 946 c0 -8 -10 -16 -21 -18 -12 -2 -27 -11 -33 -20 -17 -28 4
-53 48 -55 l36 -1 0 54 c0 41 -4 54 -15 54 -8 0 -15 -6 -15 -14z m0 -56 c0
-11 -7 -20 -15 -20 -8 0 -15 9 -15 20 0 11 7 20 15 20 8 0 15 -9 15 -20z"/>
<path d="M860 945 c0 -15 -19 -19 -87 -17 -29 1 -32 -2 -36 -31 l-4 -32 -1 33
c-2 39 -19 43 -24 5 -4 -39 -28 -42 -28 -4 0 21 -5 31 -15 31 -9 0 -15 -9 -15
-25 0 -23 -2 -24 -25 -13 -25 11 -25 31 0 21 8 -3 15 0 15 7 0 6 -11 10 -27 8
-35 -4 -45 -37 -14 -45 12 -3 21 -9 21 -13 0 -5 -9 -6 -20 -3 -11 3 -20 1 -20
-5 0 -6 38 -10 95 -10 93 0 95 0 95 23 0 13 5 27 10 30 6 3 10 -3 10 -13 0
-31 20 -39 98 -40 61 0 74 3 83 19 14 26 -5 59 -35 59 -26 0 -41 -14 -49 -45
-2 -11 -5 1 -6 28 0 26 -5 47 -11 47 -5 0 -10 -7 -10 -15z m-7 -49 c7 -16 -1
-26 -20 -26 -7 0 -13 9 -13 20 0 23 25 27 33 6z m95 -9 c2 -10 -3 -17 -12 -17
-10 0 -16 9 -16 21 0 24 23 21 28 -4z"/>
<path d="M464 916 c-3 -8 -4 -25 -2 -38 2 -19 9 -23 38 -23 33 0 35 2 35 35 0
32 -3 35 -33 38 -21 2 -34 -2 -38 -12z m52 -17 c10 -17 -13 -36 -27 -22 -12
12 -4 33 11 33 5 0 12 -5 16 -11z"/>
<path d="M602 794 c-24 -9 -49 -26 -56 -37 -33 -54 -44 -215 -16 -232 4 -3 13
9 19 26 8 24 14 29 24 21 10 -9 12 -4 9 23 -3 27 1 36 21 50 36 23 81 16 85
-13 2 -13 1 -30 -2 -38 -5 -14 -8 -14 -22 0 -19 19 -34 12 -34 -15 0 -11 -7
-19 -17 -19 -9 0 -14 -3 -10 -6 3 -4 22 -3 42 0 25 5 41 16 55 38 l19 31 15
-49 c8 -27 15 -41 15 -32 1 15 5 16 29 6 15 -7 29 -13 30 -14 7 -5 -21 -79
-32 -86 -6 -4 -33 -8 -61 -9 l-50 -1 48 -8 c27 -5 51 -10 53 -13 2 -2 -1 -18
-7 -35 -12 -35 -41 -48 -86 -38 -27 5 -27 5 -5 -6 20 -10 23 -18 20 -50 -2
-26 0 -38 9 -38 8 0 13 -12 13 -30 0 -16 4 -30 9 -30 19 0 23 21 8 43 -19 30
-11 94 15 108 10 6 35 35 54 65 19 30 41 54 48 54 13 0 26 20 26 41 0 5 -6 9
-12 9 -9 0 -14 25 -15 86 -2 95 -25 150 -75 187 -35 26 -111 31 -166 11z m157
-80 c2 -2 -4 -4 -13 -4 -14 0 -17 -5 -12 -23 3 -13 0 -32 -7 -41 -12 -17 -14
-16 -30 7 -11 17 -13 28 -6 32 14 9 -8 35 -30 35 -28 0 -62 -31 -82 -74 -18
-40 -19 -40 -18 -11 2 52 14 79 39 86 23 7 150 1 159 -7z m-104 -34 c-27 -12
-43 -12 -25 0 8 5 22 9 30 9 10 0 8 -3 -5 -9z"/>
<path d="M132 615 c0 -22 2 -32 5 -22 2 9 13 17 23 17 10 0 21 -8 23 -17 3
-10 5 -2 5 17 0 19 -2 29 -5 23 -7 -19 -41 -16 -46 5 -3 9 -5 -1 -5 -23z"/>
<path d="M230 620 c-7 -17 -10 -33 -7 -37 3 -3 9 6 13 21 3 14 10 23 15 20 5
-3 9 -1 9 5 0 24 -19 18 -30 -9z"/>
<path d="M311 615 c1 -33 2 -36 8 -15 l7 25 15 -22 c20 -33 29 -28 28 15 -1
36 -2 36 -8 7 l-6 -29 -22 29 -22 30 0 -40z"/>
<path d="M410 615 c0 -28 4 -35 19 -35 10 0 24 6 30 14 17 20 -3 56 -29 56
-16 0 -20 -7 -20 -35z m44 9 c8 -20 -1 -34 -20 -34 -8 0 -14 10 -14 25 0 28
24 34 34 9z"/>
<path d="M917 642 c6 -4 13 -21 16 -37 l4 -30 2 32 c0 17 7 34 14 36 6 3 -1 6
-18 6 -16 0 -25 -3 -18 -7z"/>
<path d="M1007 644 c-4 -4 -7 -12 -7 -17 0 -6 3 -7 7 -3 4 3 12 -6 19 -21 7
-16 13 -21 13 -13 0 21 -24 62 -32 54z"/>
<path d="M1151 615 c0 -34 1 -37 11 -21 11 19 11 19 24 1 8 -10 14 -14 14 -8
0 7 -5 15 -10 18 -8 5 -7 11 1 21 6 8 9 17 6 21 -4 3 -9 -2 -13 -11 -8 -21
-21 -21 -27 2 -3 9 -5 -1 -6 -23z"/>
<path d="M1071 613 c-1 -30 2 -33 27 -32 22 1 23 2 5 6 -14 3 -23 13 -26 31
-4 24 -4 24 -6 -5z"/>
<path d="M250 606 c0 -2 7 -9 15 -16 13 -11 14 -10 9 4 -5 14 -24 23 -24 12z"/>
<path d="M986 594 c-5 -14 -4 -15 9 -4 17 14 19 20 6 20 -5 0 -12 -7 -15 -16z"/>
<path d="M751 514 c0 -6 -11 -16 -23 -21 -21 -10 -22 -11 -5 -18 23 -9 40 7
34 31 -3 11 -5 14 -6 8z"/>
<path d="M450 395 c0 -14 2 -25 4 -25 2 0 6 11 8 25 3 14 1 25 -3 25 -5 0 -9
-11 -9 -25z"/>
<path d="M450 339 c0 -11 5 -17 10 -14 6 3 10 13 10 21 0 8 -4 14 -10 14 -5 0
-10 -9 -10 -21z"/>
<path d="M507 306 c-18 -14 -17 -14 2 -21 26 -8 42 1 34 20 -6 18 -13 18 -36
1z"/>
<path d="M438 283 c6 -2 18 -2 25 0 6 3 1 5 -13 5 -14 0 -19 -2 -12 -5z"/>
<path d="M515 260 c-3 -5 -27 -11 -53 -12 l-47 -1 55 -6 c64 -7 69 -23 11 -32
-23 -3 -44 -8 -48 -12 -3 -4 15 -4 40 -1 38 6 47 4 47 -8 0 -11 -16 -18 -57
-23 -32 -4 -52 -10 -45 -12 7 -3 19 -17 27 -33 27 -52 115 -40 101 14 -3 12 2
35 10 51 10 19 11 31 5 33 -6 2 -8 14 -5 28 5 20 2 24 -14 24 -12 0 -24 -4
-27 -10z"/>
<path d="M670 216 c0 -9 5 -16 10 -16 6 0 10 4 10 9 0 6 -4 13 -10 16 -5 3
-10 -1 -10 -9z"/>
<path d="M612 148 c-14 -14 -16 -28 -3 -28 9 0 24 30 18 36 -2 2 -9 -2 -15 -8z"/>
<path d="M710 85 c0 -19 4 -35 8 -35 4 0 6 16 4 35 -2 19 -6 35 -8 35 -2 0 -4
-16 -4 -35z"/>
</g>
</svg>
