<?xml version="1.0" standalone="no"?>
<!DOCTYPE svg PUBLIC "-//W3C//DTD SVG 20010904//EN"
 "http://www.w3.org/TR/2001/REC-SVG-20010904/DTD/svg10.dtd">
<svg version="1.0" xmlns="http://www.w3.org/2000/svg"
 width="341.000000pt" height="341.000000pt" viewBox="0 0 341.000000 341.000000"
 preserveAspectRatio="xMidYMid meet">

<g transform="translate(0.000000,341.000000) scale(0.100000,-0.100000)"
fill="#000000" stroke="none">
<path d="M1597 3323 c-8 -8 -7 -108 2 -143 6 -25 7 -25 131 -26 675 -8 1265
-499 1401 -1167 11 -55 23 -155 26 -221 4 -70 11 -124 17 -128 6 -4 41 -8 79
-8 l67 0 0 93 c-1 595 -359 1167 -895 1432 -199 98 -353 143 -565 165 -110 11
-254 13 -263 3z"/>
<path d="M1560 2454 c-36 -7 -103 -32 -150 -55 -67 -33 -102 -59 -165 -123
-44 -45 -88 -95 -97 -112 -17 -31 -17 -31 7 -42 22 -10 27 -8 54 31 46 68 154
162 223 196 92 46 160 61 270 61 118 0 224 -30 314 -88 63 -42 148 -126 179
-179 22 -37 24 -38 50 -19 18 13 17 15 -14 65 -50 77 -153 166 -245 212 -135
66 -282 84 -426 53z"/>
<path d="M1645 2298 c-82 -30 -125 -92 -125 -179 0 -185 250 -250 340 -89 66
120 -6 260 -141 275 -24 2 -57 -1 -74 -7z m141 -81 c28 -26 37 -42 41 -78 16
-141 -164 -206 -237 -86 -54 88 11 197 118 197 34 0 49 -6 78 -33z"/>
<path d="M1064 2084 c-60 -29 -73 -107 -25 -155 30 -30 80 -39 109 -20 9 5 35
-2 71 -19 84 -41 212 -79 328 -98 57 -9 103 -19 103 -22 -1 -3 -56 -86 -124
-185 -121 -177 -123 -180 -163 -186 -48 -6 -66 -19 -83 -59 -26 -62 22 -130
92 -130 68 0 112 65 89 132 -11 32 -9 37 111 215 68 100 126 182 129 183 3 0
61 -83 129 -185 119 -179 122 -185 110 -215 -25 -60 22 -130 87 -130 45 0 69
14 89 52 33 64 -11 138 -82 138 -33 0 -38 6 -159 188 l-125 187 72 7 c104 11
217 42 312 85 67 30 91 36 139 34 52 -2 61 1 87 28 54 54 36 138 -35 161 -66
22 -125 -27 -125 -104 0 -32 -4 -35 -72 -66 -260 -116 -571 -115 -848 3 l-75
32 -5 45 c-7 57 -15 69 -56 86 -41 17 -42 17 -80 -2z m76 -59 c17 -20 5 -61
-20 -68 -11 -3 -30 3 -42 13 -20 15 -21 21 -10 44 13 30 52 36 72 11z m1190 0
c17 -20 5 -61 -20 -68 -11 -3 -30 3 -42 13 -20 15 -21 21 -10 44 13 30 52 36
72 11z m-919 -696 c26 -50 -35 -93 -75 -53 -19 18 -20 28 -6 55 15 27 66 26
81 -2z m647 9 c17 -17 15 -53 -3 -68 -12 -10 -21 -10 -40 -2 -40 19 -29 82 15
82 9 0 21 -5 28 -12z"/>
<path d="M93 1894 c-16 -37 -8 -355 11 -459 117 -653 625 -1176 1280 -1317 84
-18 135 -22 303 -22 111 -1 204 1 207 4 3 3 3 37 -1 75 l-5 70 -162 -3 c-194
-4 -309 12 -477 68 -244 81 -432 200 -611 388 -187 197 -309 431 -369 712 -19
88 -23 136 -23 298 l-1 192 -50 0 c-27 0 -60 3 -72 6 -16 5 -25 1 -30 -12z"/>
<path d="M1054 1793 c4 -43 12 -98 18 -123 17 -74 84 -204 132 -256 43 -47 45
-48 59 -29 14 18 13 22 -4 45 -94 120 -136 221 -146 350 -6 76 -13 90 -47 90
-17 0 -18 -6 -12 -77z"/>
<path d="M2303 1863 c-8 -3 -13 -24 -13 -51 -1 -118 -58 -273 -133 -358 -39
-44 -39 -45 -21 -65 l19 -21 42 48 c85 96 143 252 143 383 0 71 -4 78 -37 64z"/>
<path d="M1489 1249 c-5 -11 -7 -23 -4 -28 9 -16 141 -41 215 -41 74 0 206 25
215 41 3 5 1 17 -4 27 -10 18 -13 18 -63 5 -70 -20 -239 -19 -301 0 -45 14
-48 14 -58 -4z"/>
<path d="M1790 860 c0 -6 47 -10 120 -10 73 0 120 4 120 10 0 6 -47 10 -120
10 -73 0 -120 -4 -120 -10z"/>
<path d="M1035 841 c-3 -5 -1 -12 5 -16 6 -4 7 -11 4 -17 -4 -7 -2 -8 5 -4 8
6 9 12 2 20 -6 7 -8 16 -4 19 3 4 4 7 0 7 -3 0 -8 -4 -12 -9z"/>
<path d="M1286 834 c-3 -9 -4 -19 -1 -22 3 -3 5 1 5 9 0 11 2 11 10 -1 5 -8
10 -10 10 -5 0 6 -4 16 -9 23 -6 11 -10 10 -15 -4z"/>
<path d="M1220 835 c0 -7 30 -13 34 -7 3 4 -4 9 -15 9 -10 1 -19 0 -19 -2z"/>
<path d="M1468 803 c7 -3 16 -2 19 1 4 3 -2 6 -13 5 -11 0 -14 -3 -6 -6z"/>
<path d="M1568 794 c-11 -11 4 -43 33 -68 19 -17 29 -21 29 -12 0 7 -11 22
-25 32 -16 12 -23 25 -19 36 5 17 -6 25 -18 12z"/>
<path d="M1790 765 c0 -23 5 -35 14 -35 8 0 15 14 18 35 3 29 1 35 -14 35 -14
0 -18 -8 -18 -35z"/>
<path d="M1866 778 c-11 -44 -8 -48 44 -48 46 0 50 2 50 23 0 32 -18 47 -56
47 -24 0 -33 -5 -38 -22z"/>
<path d="M1998 765 c3 -21 10 -35 18 -35 9 0 14 12 14 35 0 27 -4 35 -18 35
-15 0 -17 -6 -14 -35z"/>
<path d="M1255 775 c-4 -11 -14 -35 -21 -54 -16 -39 -18 -64 -3 -38 5 9 21 17
34 17 13 0 29 -8 34 -17 20 -35 10 11 -13 62 -20 43 -25 47 -31 30z m19 -63
c-25 -6 -32 2 -22 28 l9 25 14 -25 c12 -21 12 -25 -1 -28z"/>
<path d="M1330 770 c-26 -26 -25 -64 3 -90 15 -15 29 -19 47 -15 14 3 33 6 42
6 9 0 19 7 22 15 8 20 53 18 65 -3 7 -12 10 -14 11 -4 0 9 4 10 13 4 6 -6 21
-13 32 -16 14 -5 12 -1 -7 14 -28 21 -38 62 -18 74 6 3 10 11 10 17 0 7 -6 6
-15 -2 -8 -7 -15 -29 -16 -49 l0 -36 -21 53 c-12 29 -24 49 -28 45 -4 -4 -16
-30 -26 -57 -10 -27 -20 -44 -22 -38 -2 8 -11 6 -28 -4 -22 -15 -26 -15 -49 0
-15 10 -25 26 -25 40 0 25 28 56 50 56 7 0 22 -7 32 -17 10 -9 18 -11 18 -5 0
13 -32 32 -54 32 -9 0 -25 -9 -36 -20z m162 -42 c7 -15 4 -18 -16 -18 -24 0
-24 2 -14 32 7 20 13 27 16 18 3 -8 9 -23 14 -32z"/>
<path d="M1790 656 l0 -26 119 0 c99 0 120 3 125 16 13 33 7 37 -51 30 -73 -8
-77 -8 -140 0 -52 6 -53 6 -53 -20z"/>
</g>
</svg>
